<svg width="88" height="35" viewBox="0 0 88 35" fill="none" xmlns="http://www.w3.org/2000/svg">
<g filter="url(#filter0_d_3_52)">
<path d="M25.0098 0.40625V26H20.1582L9.27734 8.24609V26H4.44336V0.40625H9.27734L20.1934 18.1777V0.40625H25.0098ZM35.082 0.40625V26H30.248V0.40625H35.082ZM45.1367 0.40625V26H40.3027V0.40625H45.1367ZM60.5 0.40625L50.2344 12.8867L44.3633 19.1621L43.502 14.4688L47.5801 9.17773L54.5762 0.40625H60.5ZM55.1211 26L47.1582 14.0117L50.6211 10.8828L60.8691 26H55.1211ZM83.2812 12.5527V13.8711C83.2812 15.8047 83.0234 17.5449 82.5078 19.0918C81.9922 20.627 81.2598 21.9336 80.3105 23.0117C79.3613 24.0898 78.2305 24.916 76.918 25.4902C75.6055 26.0645 74.1465 26.3516 72.541 26.3516C70.959 26.3516 69.5059 26.0645 68.1816 25.4902C66.8691 24.916 65.7324 24.0898 64.7715 23.0117C63.8105 21.9336 63.0664 20.627 62.5391 19.0918C62.0117 17.5449 61.748 15.8047 61.748 13.8711V12.5527C61.748 10.6074 62.0117 8.86719 62.5391 7.33203C63.0664 5.79688 63.8047 4.49023 64.7539 3.41211C65.7031 2.32227 66.834 1.49023 68.1465 0.916016C69.4707 0.341797 70.9238 0.0546875 72.5059 0.0546875C74.1113 0.0546875 75.5703 0.341797 76.8828 0.916016C78.1953 1.49023 79.3262 2.32227 80.2754 3.41211C81.2363 4.49023 81.9746 5.79688 82.4902 7.33203C83.0176 8.86719 83.2812 10.6074 83.2812 12.5527ZM78.3945 13.8711V12.5176C78.3945 11.123 78.2656 9.89844 78.0078 8.84375C77.75 7.77734 77.3691 6.88086 76.8652 6.1543C76.3613 5.42773 75.7402 4.88281 75.002 4.51953C74.2637 4.14453 73.4316 3.95703 72.5059 3.95703C71.5684 3.95703 70.7363 4.14453 70.0098 4.51953C69.2949 4.88281 68.6855 5.42773 68.1816 6.1543C67.6777 6.88086 67.291 7.77734 67.0215 8.84375C66.7637 9.89844 66.6348 11.123 66.6348 12.5176V13.8711C66.6348 15.2539 66.7637 16.4785 67.0215 17.5449C67.291 18.6113 67.6777 19.5137 68.1816 20.252C68.6973 20.9785 69.3184 21.5293 70.0449 21.9043C70.7715 22.2793 71.6035 22.4668 72.541 22.4668C73.4785 22.4668 74.3105 22.2793 75.0371 21.9043C75.7637 21.5293 76.373 20.9785 76.8652 20.252C77.3691 19.5137 77.75 18.6113 78.0078 17.5449C78.2656 16.4785 78.3945 15.2539 78.3945 13.8711Z" fill="black"/>
</g>
<defs>
<filter id="filter0_d_3_52" x="0.443359" y="0.0546875" width="86.8379" height="34.2969" filterUnits="userSpaceOnUse" color-interpolation-filters="sRGB">
<feFlood flood-opacity="0" result="BackgroundImageFix"/>
<feColorMatrix in="SourceAlpha" type="matrix" values="0 0 0 0 0 0 0 0 0 0 0 0 0 0 0 0 0 0 127 0" result="hardAlpha"/>
<feOffset dy="4"/>
<feGaussianBlur stdDeviation="2"/>
<feComposite in2="hardAlpha" operator="out"/>
<feColorMatrix type="matrix" values="0 0 0 0 1 0 0 0 0 0.75974 0 0 0 0 0 0 0 0 1 0"/>
<feBlend mode="normal" in2="BackgroundImageFix" result="effect1_dropShadow_3_52"/>
<feBlend mode="normal" in="SourceGraphic" in2="effect1_dropShadow_3_52" result="shape"/>
</filter>
</defs>
</svg>
