<svg width="131" height="35" viewBox="0 0 131 35" fill="none" xmlns="http://www.w3.org/2000/svg">
<g filter="url(#filter0_d_3_49)">
<path d="M23.6543 22.2031V26H5.68945V22.2031H23.6543ZM23.3203 3.23633L7.67578 26H4.35352V23.0996L20.0684 0.40625H23.3203V3.23633ZM21.5977 0.40625V4.2207H4.40625V0.40625H21.5977ZM30.2285 0.40625L35.8535 12.3418L41.5137 0.40625H46.8223L38.3145 16.6309V26H33.4102V16.6309L24.8848 0.40625H30.2285ZM55.998 21.0957L61.0957 0.40625H63.8555L64.0312 4.76562L58.582 26H55.6641L55.998 21.0957ZM52.7812 0.40625L56.9648 21.0254V26H53.7832L47.9824 0.40625H52.7812ZM69.3223 20.9375L73.4355 0.40625H78.252L72.4512 26H69.2695L69.3223 20.9375ZM65.1738 0.40625L70.2715 21.166L70.5703 26H67.6523L62.2207 4.74805L62.4316 0.40625H65.1738ZM102.035 12.5527V13.8711C102.035 15.8047 101.777 17.5449 101.262 19.0918C100.746 20.627 100.014 21.9336 99.0645 23.0117C98.1152 24.0898 96.9844 24.916 95.6719 25.4902C94.3594 26.0645 92.9004 26.3516 91.2949 26.3516C89.7129 26.3516 88.2598 26.0645 86.9355 25.4902C85.623 24.916 84.4863 24.0898 83.5254 23.0117C82.5645 21.9336 81.8203 20.627 81.293 19.0918C80.7656 17.5449 80.502 15.8047 80.502 13.8711V12.5527C80.502 10.6074 80.7656 8.86719 81.293 7.33203C81.8203 5.79688 82.5586 4.49023 83.5078 3.41211C84.457 2.32227 85.5879 1.49023 86.9004 0.916016C88.2246 0.341797 89.6777 0.0546875 91.2598 0.0546875C92.8652 0.0546875 94.3242 0.341797 95.6367 0.916016C96.9492 1.49023 98.0801 2.32227 99.0293 3.41211C99.9902 4.49023 100.729 5.79688 101.244 7.33203C101.771 8.86719 102.035 10.6074 102.035 12.5527ZM97.1484 13.8711V12.5176C97.1484 11.123 97.0195 9.89844 96.7617 8.84375C96.5039 7.77734 96.123 6.88086 95.6191 6.1543C95.1152 5.42773 94.4941 4.88281 93.7559 4.51953C93.0176 4.14453 92.1855 3.95703 91.2598 3.95703C90.3223 3.95703 89.4902 4.14453 88.7637 4.51953C88.0488 4.88281 87.4395 5.42773 86.9355 6.1543C86.4316 6.88086 86.0449 7.77734 85.7754 8.84375C85.5176 9.89844 85.3887 11.123 85.3887 12.5176V13.8711C85.3887 15.2539 85.5176 16.4785 85.7754 17.5449C86.0449 18.6113 86.4316 19.5137 86.9355 20.252C87.4512 20.9785 88.0723 21.5293 88.7988 21.9043C89.5254 22.2793 90.3574 22.4668 91.2949 22.4668C92.2324 22.4668 93.0645 22.2793 93.791 21.9043C94.5176 21.5293 95.127 20.9785 95.6191 20.252C96.123 19.5137 96.5039 18.6113 96.7617 17.5449C97.0195 16.4785 97.1484 15.2539 97.1484 13.8711ZM126.855 12.5527V13.8711C126.855 15.8047 126.598 17.5449 126.082 19.0918C125.566 20.627 124.834 21.9336 123.885 23.0117C122.936 24.0898 121.805 24.916 120.492 25.4902C119.18 26.0645 117.721 26.3516 116.115 26.3516C114.533 26.3516 113.08 26.0645 111.756 25.4902C110.443 24.916 109.307 24.0898 108.346 23.0117C107.385 21.9336 106.641 20.627 106.113 19.0918C105.586 17.5449 105.322 15.8047 105.322 13.8711V12.5527C105.322 10.6074 105.586 8.86719 106.113 7.33203C106.641 5.79688 107.379 4.49023 108.328 3.41211C109.277 2.32227 110.408 1.49023 111.721 0.916016C113.045 0.341797 114.498 0.0546875 116.08 0.0546875C117.686 0.0546875 119.145 0.341797 120.457 0.916016C121.77 1.49023 122.9 2.32227 123.85 3.41211C124.811 4.49023 125.549 5.79688 126.064 7.33203C126.592 8.86719 126.855 10.6074 126.855 12.5527ZM121.969 13.8711V12.5176C121.969 11.123 121.84 9.89844 121.582 8.84375C121.324 7.77734 120.943 6.88086 120.439 6.1543C119.936 5.42773 119.314 4.88281 118.576 4.51953C117.838 4.14453 117.006 3.95703 116.08 3.95703C115.143 3.95703 114.311 4.14453 113.584 4.51953C112.869 4.88281 112.26 5.42773 111.756 6.1543C111.252 6.88086 110.865 7.77734 110.596 8.84375C110.338 9.89844 110.209 11.123 110.209 12.5176V13.8711C110.209 15.2539 110.338 16.4785 110.596 17.5449C110.865 18.6113 111.252 19.5137 111.756 20.252C112.271 20.9785 112.893 21.5293 113.619 21.9043C114.346 22.2793 115.178 22.4668 116.115 22.4668C117.053 22.4668 117.885 22.2793 118.611 21.9043C119.338 21.5293 119.947 20.9785 120.439 20.252C120.943 19.5137 121.324 18.6113 121.582 17.5449C121.84 16.4785 121.969 15.2539 121.969 13.8711Z" fill="black"/>
</g>
<defs>
<filter id="filter0_d_3_49" x="0.353516" y="0.0546875" width="130.502" height="34.2969" filterUnits="userSpaceOnUse" color-interpolation-filters="sRGB">
<feFlood flood-opacity="0" result="BackgroundImageFix"/>
<feColorMatrix in="SourceAlpha" type="matrix" values="0 0 0 0 0 0 0 0 0 0 0 0 0 0 0 0 0 0 127 0" result="hardAlpha"/>
<feOffset dy="4"/>
<feGaussianBlur stdDeviation="2"/>
<feComposite in2="hardAlpha" operator="out"/>
<feColorMatrix type="matrix" values="0 0 0 0 1 0 0 0 0 0.75974 0 0 0 0 0 0 0 0 1 0"/>
<feBlend mode="normal" in2="BackgroundImageFix" result="effect1_dropShadow_3_49"/>
<feBlend mode="normal" in="SourceGraphic" in2="effect1_dropShadow_3_49" result="shape"/>
</filter>
</defs>
</svg>
